<svg xmlns="http://www.w3.org/2000/svg" width="375" viewBox="0 0 375 375" height="375" version="1.0"><defs><clipPath id="a"><path d="M 86.539062 96.636719 L 288.289062 96.636719 L 288.289062 278.136719 L 86.539062 278.136719 Z M 86.539062 96.636719"/></clipPath></defs><path d="M 187.5 0 C 83.945312 0 0 83.945312 0 187.5 C 0 291.054688 83.945312 375 187.5 375 C 291.054688 375 375 291.054688 375 187.5 C 375 83.945312 291.054688 0 187.5 0"/><path fill="#FFF" d="M 219.695312 197.46875 C 219.695312 198.527344 219.644531 199.582031 219.539062 200.632812 C 219.4375 201.683594 219.28125 202.726562 219.074219 203.765625 C 218.867188 204.800781 218.613281 205.824219 218.304688 206.835938 C 218 207.847656 217.640625 208.839844 217.238281 209.816406 C 216.832031 210.792969 216.382812 211.746094 215.882812 212.679688 C 215.386719 213.613281 214.84375 214.515625 214.253906 215.394531 C 213.667969 216.273438 213.039062 217.121094 212.367188 217.9375 C 211.695312 218.757812 210.988281 219.539062 210.242188 220.285156 C 209.492188 221.03125 208.710938 221.742188 207.894531 222.410156 C 207.074219 223.082031 206.226562 223.710938 205.347656 224.296875 C 204.46875 224.886719 203.5625 225.429688 202.632812 225.925781 C 201.699219 226.425781 200.746094 226.875 199.769531 227.28125 C 198.792969 227.683594 197.796875 228.039062 196.785156 228.347656 C 195.773438 228.652344 194.75 228.910156 193.710938 229.117188 C 192.675781 229.320312 191.632812 229.476562 190.578125 229.582031 C 189.527344 229.683594 188.472656 229.734375 187.414062 229.734375 C 186.359375 229.734375 185.304688 229.683594 184.25 229.582031 C 183.199219 229.476562 182.15625 229.320312 181.117188 229.117188 C 180.082031 228.910156 179.054688 228.652344 178.042969 228.347656 C 177.03125 228.039062 176.039062 227.683594 175.0625 227.28125 C 174.085938 226.875 173.128906 226.425781 172.199219 225.925781 C 171.265625 225.429688 170.359375 224.886719 169.480469 224.296875 C 168.601562 223.710938 167.753906 223.082031 166.9375 222.410156 C 166.121094 221.742188 165.335938 221.03125 164.589844 220.285156 C 163.84375 219.539062 163.132812 218.757812 162.460938 217.9375 C 161.792969 217.121094 161.164062 216.273438 160.574219 215.394531 C 159.988281 214.515625 159.445312 213.613281 158.945312 212.679688 C 158.449219 211.746094 157.996094 210.792969 157.59375 209.816406 C 157.1875 208.839844 156.832031 207.847656 156.523438 206.835938 C 156.21875 205.824219 155.960938 204.800781 155.753906 203.765625 C 155.550781 202.726562 155.394531 201.683594 155.289062 200.632812 C 155.1875 199.582031 155.136719 198.527344 155.136719 197.46875 C 155.136719 196.414062 155.1875 195.359375 155.289062 194.304688 C 155.394531 193.253906 155.550781 192.210938 155.753906 191.175781 C 155.960938 190.136719 156.21875 189.113281 156.523438 188.101562 C 156.832031 187.089844 157.1875 186.097656 157.59375 185.121094 C 157.996094 184.144531 158.449219 183.191406 158.945312 182.257812 C 159.445312 181.328125 159.988281 180.421875 160.574219 179.542969 C 161.164062 178.664062 161.792969 177.816406 162.460938 177 C 163.132812 176.183594 163.84375 175.402344 164.589844 174.652344 C 165.335938 173.90625 166.121094 173.195312 166.9375 172.527344 C 167.753906 171.855469 168.601562 171.226562 169.480469 170.640625 C 170.359375 170.054688 171.265625 169.511719 172.199219 169.011719 C 173.128906 168.515625 174.085938 168.0625 175.0625 167.660156 C 176.039062 167.253906 177.03125 166.898438 178.042969 166.59375 C 179.054688 166.285156 180.082031 166.027344 181.117188 165.824219 C 182.15625 165.617188 183.199219 165.460938 184.25 165.359375 C 185.304688 165.253906 186.359375 165.203125 187.414062 165.203125 C 188.472656 165.203125 189.527344 165.253906 190.578125 165.359375 C 191.632812 165.460938 192.675781 165.617188 193.710938 165.824219 C 194.75 166.027344 195.773438 166.285156 196.785156 166.59375 C 197.796875 166.898438 198.792969 167.253906 199.769531 167.660156 C 200.746094 168.0625 201.699219 168.515625 202.632812 169.011719 C 203.5625 169.511719 204.46875 170.054688 205.347656 170.640625 C 206.226562 171.226562 207.074219 171.855469 207.894531 172.527344 C 208.710938 173.195312 209.492188 173.90625 210.242188 174.652344 C 210.988281 175.402344 211.695312 176.183594 212.367188 177 C 213.039062 177.816406 213.667969 178.664062 214.253906 179.542969 C 214.84375 180.421875 215.386719 181.328125 215.882812 182.257812 C 216.382812 183.191406 216.832031 184.144531 217.238281 185.121094 C 217.640625 186.097656 218 187.089844 218.304688 188.101562 C 218.613281 189.113281 218.867188 190.136719 219.074219 191.175781 C 219.28125 192.210938 219.4375 193.253906 219.539062 194.304688 C 219.644531 195.359375 219.695312 196.414062 219.695312 197.46875 Z M 219.695312 197.46875"/><g clip-path="url(#a)"><path fill="#FFF" d="M 157.152344 96.636719 L 138.691406 116.800781 L 106.714844 116.800781 C 95.566406 116.800781 86.539062 125.828125 86.539062 136.96875 L 86.539062 257.96875 C 86.539062 269.113281 95.566406 278.136719 106.714844 278.136719 L 268.113281 278.136719 C 279.261719 278.136719 288.289062 269.113281 288.289062 257.96875 L 288.289062 136.96875 C 288.289062 125.828125 279.261719 116.800781 268.113281 116.800781 L 236.136719 116.800781 L 217.675781 96.636719 Z M 187.414062 247.886719 C 159.574219 247.886719 136.976562 225.300781 136.976562 197.46875 C 136.976562 169.640625 159.574219 147.050781 187.414062 147.050781 C 215.257812 147.050781 237.851562 169.640625 237.851562 197.46875 C 237.851562 225.300781 215.257812 247.886719 187.414062 247.886719 Z M 187.414062 247.886719"/></g></svg>